HIERARCHY
ROOT Hips
{
	OFFSET -0.001795 -0.223333 0.028219
	CHANNELS 6 Xposition Yposition Zposition Zrotation Yrotation Xrotation 
	JOINT LeftUpLeg
	{
		OFFSET 0.069520 -0.091406 -0.006815
		CHANNELS 3 Zrotation Yrotation Xrotation
		JOINT LeftLeg
		{
			OFFSET 0.034277 -0.375199 -0.004496
			CHANNELS 3 Zrotation Yrotation Xrotation
			JOINT LeftFoot
			{
				OFFSET -0.013596 -0.397961 -0.043693
				CHANNELS 3 Zrotation Yrotation Xrotation
				JOINT LeftToe
				{
					OFFSET 0.026358 -0.055791 0.119288
					CHANNELS 3 Zrotation Yrotation Xrotation
					End Site
					{
						OFFSET 0.000000 0.000000 0.000000
					}
				}
			}
		}
	}
	JOINT RightUpLeg
	{
		OFFSET -0.067670 -0.090522 -0.004320
		CHANNELS 3 Zrotation Yrotation Xrotation
		JOINT RightLeg
		{
			OFFSET -0.038290 -0.382569 -0.008850
			CHANNELS 3 Zrotation Yrotation Xrotation
			JOINT RightFoot
			{
				OFFSET 0.015774 -0.398415 -0.042312
				CHANNELS 3 Zrotation Yrotation Xrotation
				JOINT RightToe
				{
					OFFSET -0.025372 -0.048144 0.123348
					CHANNELS 3 Zrotation Yrotation Xrotation
					End Site
					{
						OFFSET 0.000000 0.000000 0.000000
					}
				}
			}
		}
	}
	JOINT Spine
	{
		OFFSET -0.002533 0.108963 -0.026696
		CHANNELS 3 Zrotation Yrotation Xrotation
		JOINT Spine1
		{
			OFFSET 0.005487 0.135180 0.001092
			CHANNELS 3 Zrotation Yrotation Xrotation
			JOINT Spine2
			{
				OFFSET 0.001457 0.052922 0.025425
				CHANNELS 3 Zrotation Yrotation Xrotation
				JOINT Neck
				{
					OFFSET -0.002778 0.213870 -0.042857
					CHANNELS 3 Zrotation Yrotation Xrotation
					JOINT Head
					{
						OFFSET 0.005152 0.064970 0.051349
						CHANNELS 3 Zrotation Yrotation Xrotation
						End Site
						{
							OFFSET 0.000000 0.000000 0.000000
						}
					}
				}
				JOINT LeftShoulder
				{
					OFFSET 0.078845 0.121749 -0.034090
					CHANNELS 3 Zrotation Yrotation Xrotation
					JOINT LeftArm
					{
						OFFSET 0.090977 0.030469 -0.008868
						CHANNELS 3 Zrotation Yrotation Xrotation
						JOINT LeftForeArm
						{
							OFFSET 0.259612 -0.012772 -0.027456
							CHANNELS 3 Zrotation Yrotation Xrotation
							JOINT LeftHand
							{
								OFFSET 0.249234 0.008986 -0.001171
								CHANNELS 3 Zrotation Yrotation Xrotation
								End Site
								{
									OFFSET 0.000000 0.000000 0.000000
								}
							}
						}
					}
				}
				JOINT RightShoulder
				{
					OFFSET -0.081759 0.118833 -0.038615
					CHANNELS 3 Zrotation Yrotation Xrotation
					JOINT RightArm
					{
						OFFSET -0.096012 0.032551 -0.009143
						CHANNELS 3 Zrotation Yrotation Xrotation
						JOINT RightForeArm
						{
							OFFSET -0.253742 -0.013329 -0.021401
							CHANNELS 3 Zrotation Yrotation Xrotation
							JOINT RightHand
							{
								OFFSET -0.255298 0.007772 -0.005559
								CHANNELS 3 Zrotation Yrotation Xrotation
								End Site
								{
									OFFSET 0.000000 0.000000 0.000000
								}
							}
						}
					}
				}
			}
		}
	}
}
MOTION
Frames: 18
Frame Time: 0.050000
0.000000 0.945402 0.000000 -1.635874 6.033712 0.397623 2.764543 -0.175070 -1.674132 -0.954188 0.021657 2.408479 8.765411 17.271773 -1.569316 0.000000 0.000000 0.000000 -1.654402 1.539904 -19.739456 -2.403559 1.397022 25.326056 4.935117 9.601966 4.466012 0.000000 0.000000 0.000000 3.553098 -0.745821 9.207981 1.410687 -0.769805 1.374467 -7.324856 -2.513469 9.571865 8.749220 -5.354253 -9.830540 0.000000 0.000000 0.000000 -11.676580 -22.235947 8.973400 -52.546183 -20.364230 2.303921 1.128852 -33.761879 0.950629 0.000000 0.000000 0.000000 12.359570 9.014823 3.581235 57.525529 6.404561 -2.991404 3.695216 35.589009 2.650476 0.000000 0.000000 0.000000 
0.000383 0.945723 0.005762 -1.522586 5.401295 1.219026 2.954525 -0.168463 -1.492190 -1.568550 0.122478 1.325190 8.954081 17.752432 -1.280221 0.000000 0.000000 0.000000 -1.267202 1.687304 -20.596180 -3.379816 1.651406 22.454606 7.301326 11.357711 9.811394 0.000000 0.000000 0.000000 4.919345 -0.780003 8.093096 0.384250 -0.273242 1.645346 -7.388819 -3.695302 9.575784 9.560380 -6.442006 -7.808126 0.000000 0.000000 0.000000 -10.950162 -24.607260 10.317821 -53.801891 -23.256981 3.785560 4.037009 -32.668608 0.181986 0.000000 0.000000 0.000000 11.892482 8.867897 3.228633 60.832976 6.171007 -3.244040 2.560854 36.346450 2.247098 0.000000 0.000000 0.000000 
-0.000354 0.947101 0.013494 -0.654223 4.403920 1.404109 2.111533 -0.150966 -1.447364 -1.752152 0.129760 2.110296 9.331210 18.628674 -0.898832 0.000000 0.000000 0.000000 -1.107553 1.714175 -20.120884 -5.175891 1.878805 16.760846 12.047446 11.166346 24.071033 0.000000 0.000000 0.000000 4.864383 -0.725022 7.602656 0.207512 -0.116095 0.316371 -7.060024 -3.403507 11.541638 6.764609 -3.992924 -10.815709 0.000000 0.000000 0.000000 -10.609127 -26.526120 11.255501 -52.734438 -28.138191 5.825059 3.813201 -32.642475 0.280241 0.000000 0.000000 0.000000 11.365180 9.392671 3.436984 61.758073 6.489513 -3.308898 1.274815 36.740966 1.881320 0.000000 0.000000 0.000000 
-0.001359 0.948007 0.023576 -0.173096 4.951412 1.992761 1.972993 -0.167841 -1.652687 -2.115852 0.162899 2.415131 9.106364 18.142794 -0.978577 0.000000 0.000000 0.000000 -1.335827 1.586658 -19.117670 -5.109271 1.555687 12.710022 12.263219 8.019706 30.730316 0.000000 0.000000 0.000000 5.579192 -0.681963 6.387220 0.576839 -0.319355 0.780028 -7.194271 -4.799920 11.001706 5.717591 -3.609738 -8.791505 0.000000 0.000000 0.000000 -9.668520 -27.967557 11.944426 -55.291848 -33.336715 9.095693 3.972798 -32.610399 0.284824 0.000000 0.000000 0.000000 10.184147 10.689361 3.824599 62.055574 7.684076 -2.662920 0.957371 37.000810 1.669933 0.000000 0.000000 0.000000 
-0.002796 0.949082 0.034562 0.511182 5.076307 2.130218 1.302447 -0.140698 -1.405073 -1.940102 0.128352 3.014621 9.047423 18.026944 -0.888865 0.000000 0.000000 0.000000 -2.325826 1.322099 -17.413137 -4.552114 1.277928 10.486411 12.721996 8.473290 31.169924 0.000000 0.000000 0.000000 6.007658 -0.649212 5.713103 0.985899 -0.466760 -0.140220 -7.091341 -5.848187 11.981697 5.133250 -3.322560 -8.607168 0.000000 0.000000 0.000000 -9.612587 -29.556757 12.874753 -54.396298 -37.824531 11.247794 5.061846 -32.880628 0.014828 0.000000 0.000000 0.000000 9.577980 11.000737 3.815650 62.655203 9.317904 -1.966321 0.534949 38.034964 1.514274 0.000000 0.000000 0.000000 
-0.004774 0.950427 0.045656 0.577395 4.909570 2.695720 1.293950 -0.143389 -1.424739 -1.682278 0.088887 3.352043 9.019216 18.002332 -0.803779 0.000000 0.000000 0.000000 -2.596125 1.245228 -16.648482 -3.876180 1.066979 9.329408 12.761627 8.763859 30.690320 0.000000 0.000000 0.000000 6.821673 -0.675022 5.283397 1.173344 -0.561207 -0.050135 -6.361800 -6.821153 11.630444 4.013398 -2.688697 -7.664134 0.000000 0.000000 0.000000 -8.560176 -31.010208 13.510764 -55.838212 -42.418812 14.446648 6.578853 -32.441213 -0.382727 0.000000 0.000000 0.000000 8.674746 11.613703 3.902882 63.452510 10.803080 -1.212235 0.259342 39.522322 1.343787 0.000000 0.000000 0.000000 
-0.006722 0.950988 0.056019 0.688228 4.069736 2.995195 1.447510 -0.154019 -1.533942 -1.959160 0.115466 3.997518 9.414404 18.895501 -0.240633 0.000000 0.000000 0.000000 -2.818130 1.203181 -16.078123 -2.795257 0.886870 9.745022 11.172829 8.362276 26.734396 0.000000 0.000000 0.000000 7.811852 -0.660736 4.512740 1.186993 -0.598896 0.545462 -6.002788 -7.474784 11.250962 3.211443 -2.193629 -7.375137 0.000000 0.000000 0.000000 -8.628862 -32.140856 14.276499 -54.430703 -45.140805 15.635072 7.013150 -32.618634 -0.506175 0.000000 0.000000 0.000000 8.726129 13.232306 4.418096 63.814135 12.929037 -0.059330 -1.186934 40.157921 0.712488 0.000000 0.000000 0.000000 
-0.008299 0.951415 0.065189 0.543240 3.103650 3.378467 1.648037 -0.187107 -1.936489 -1.919284 0.104564 4.576851 10.005237 20.157958 0.811397 0.000000 0.000000 0.000000 -2.631678 1.223823 -15.681351 -1.901281 0.760269 10.551897 9.307965 7.797307 21.900507 0.000000 0.000000 0.000000 8.527238 -0.649022 3.976275 1.672523 -0.859863 1.082622 -5.383911 -7.835921 10.692441 3.214534 -2.330519 -6.321849 0.000000 0.000000 0.000000 -8.291476 -33.690331 15.090136 -52.905436 -47.395158 16.461709 8.086032 -31.484887 -0.810066 0.000000 0.000000 0.000000 8.492811 14.918166 4.982182 63.985610 15.998212 1.667802 -3.210775 39.204189 -0.113816 0.000000 0.000000 0.000000 
-0.009103 0.950597 0.072667 0.817579 2.522921 3.537545 1.417909 -0.230476 -2.519016 -2.294893 0.141205 5.810927 10.757236 21.605749 1.302510 0.000000 0.000000 0.000000 -2.923445 1.202393 -15.655229 -1.147830 0.678381 12.007410 7.718102 6.961393 18.180448 0.000000 0.000000 0.000000 9.061160 -0.698469 4.118792 1.779237 -0.923249 1.345398 -4.861848 -8.273373 10.576963 3.046557 -2.228664 -6.641630 0.000000 0.000000 0.000000 -8.017516 -34.212701 15.394261 -51.951167 -49.707598 17.498074 8.152403 -31.040662 -0.841070 0.000000 0.000000 0.000000 7.976173 17.454045 5.923762 63.903229 19.780483 3.755241 -5.533582 37.805404 -0.932523 0.000000 0.000000 0.000000 
-0.009332 0.950290 0.078413 1.041329 2.514197 3.558712 1.448907 -0.277519 -3.117633 -2.608284 0.169258 7.124388 10.905302 21.881225 1.631328 0.000000 0.000000 0.000000 -3.126773 1.121724 -14.792753 -0.609169 0.565732 12.116765 6.228921 5.911619 15.058425 0.000000 0.000000 0.000000 9.563107 -0.784425 4.558751 2.125032 -1.123520 1.859318 -4.703642 -7.754045 10.044836 3.852801 -2.810943 -6.254678 0.000000 0.000000 0.000000 -8.495999 -35.808799 16.246864 -49.825246 -51.233133 17.367839 8.689543 -30.534324 -1.014643 0.000000 0.000000 0.000000 7.451294 19.825392 6.970385 62.851681 23.954903 6.119928 -8.772484 34.789850 -1.735337 0.000000 0.000000 0.000000 
-0.009491 0.949580 0.082431 1.560902 3.005194 3.746460 1.292376 -0.364462 -4.185771 -2.913394 0.194984 8.343439 10.891549 21.831579 2.372054 0.000000 0.000000 0.000000 -3.825578 1.020277 -14.489755 -0.338645 0.488862 11.896039 5.880784 5.676253 14.403972 0.000000 0.000000 0.000000 10.042840 -0.869285 4.884692 2.012239 -1.104935 2.419588 -4.262237 -7.618641 10.022466 4.561976 -3.304077 -6.444247 0.000000 0.000000 0.000000 -7.842794 -36.699142 16.384885 -49.354333 -52.460039 17.856301 10.627911 -30.522019 -1.558022 0.000000 0.000000 0.000000 6.925932 22.745594 8.209156 60.434325 28.528248 8.321988 -12.376113 30.176228 -2.322074 0.000000 0.000000 0.000000 
-0.010023 0.950069 0.085081 1.949843 3.483252 3.919081 1.288036 -0.433450 -5.026012 -2.804232 0.152385 9.245340 10.312386 20.803658 3.173042 0.000000 0.000000 0.000000 -3.901324 0.963306 -13.814264 -0.871018 0.555711 10.881757 5.613687 5.393162 14.126574 0.000000 0.000000 0.000000 10.438818 -0.965193 5.316533 1.964743 -1.141891 3.296034 -4.228566 -6.335737 9.333948 5.776286 -4.130182 -6.084272 0.000000 0.000000 0.000000 -7.708048 -37.954092 16.677036 -47.492230 -52.362646 16.834286 11.650375 -32.041849 -1.939876 0.000000 0.000000 0.000000 5.978863 25.181382 9.350145 56.822719 32.760066 10.000086 -14.569540 25.749991 -2.299927 0.000000 0.000000 0.000000 
-0.011058 0.950651 0.086838 2.080606 4.363769 4.275554 1.401584 -0.487421 -5.693666 -2.457659 0.073540 9.236913 9.727816 19.792454 4.016441 0.000000 0.000000 0.000000 -4.011566 0.921699 -13.530366 -0.782697 0.497244 10.173901 5.211142 4.775725 14.123405 0.000000 0.000000 0.000000 10.628534 -1.036437 5.559629 1.809589 -1.114588 3.905271 -4.176058 -5.089944 9.632832 7.126433 -5.087420 -5.919623 0.000000 0.000000 0.000000 -6.229051 -38.147389 15.947071 -48.223267 -51.591035 16.625145 12.095653 -34.879469 -2.271007 0.000000 0.000000 0.000000 5.242360 27.525302 10.460128 52.234296 35.664218 10.378744 -16.128838 22.028288 -2.117332 0.000000 0.000000 0.000000 
-0.012440 0.951565 0.088597 2.311362 5.248265 4.615415 1.365169 -0.558340 -6.524275 -1.986726 -0.033991 9.508403 9.085886 18.761194 5.074067 0.000000 0.000000 0.000000 -4.058929 0.893309 -13.376056 -0.940577 0.501044 9.746941 4.810254 4.131360 14.194294 0.000000 0.000000 0.000000 10.875469 -1.119972 5.849448 1.245787 -0.865501 4.323421 -4.079224 -3.237920 9.623313 8.908942 -6.226800 -6.354507 0.000000 0.000000 0.000000 -5.332632 -38.335871 15.373327 -47.732554 -49.863182 15.288769 11.322339 -39.353073 -2.361884 0.000000 0.000000 0.000000 3.689224 28.578269 10.900850 49.084663 37.452151 10.493697 -16.309923 20.152477 -1.871892 0.000000 0.000000 0.000000 
-0.013783 0.951647 0.090643 2.478000 6.406385 5.043255 1.445419 -0.609427 -7.130065 -1.497775 -0.145394 9.637266 8.081565 17.063734 5.128999 0.000000 0.000000 0.000000 -4.438725 0.827539 -13.204511 -0.369444 0.354543 9.229658 4.257681 3.326005 14.091962 0.000000 0.000000 0.000000 10.619048 -1.129086 5.860554 0.710341 -0.593346 4.077882 -4.075798 -1.588075 10.406757 9.901292 -6.870748 -6.454555 0.000000 0.000000 0.000000 -4.934776 -37.257779 14.433140 -49.095861 -45.984453 13.591749 8.727823 -46.451499 -1.834963 0.000000 0.000000 0.000000 2.933645 28.434050 10.946316 46.738542 37.962198 10.129862 -16.421394 20.862948 -1.911900 0.000000 0.000000 0.000000 
-0.014982 0.951826 0.093051 2.657761 7.735151 5.216365 1.718124 -0.626340 -7.381646 -1.278360 -0.184869 9.144830 7.051202 15.467668 5.980665 0.000000 0.000000 0.000000 -4.482268 0.763451 -12.463417 -0.381669 0.315776 8.317334 3.617765 2.416321 13.905483 0.000000 0.000000 0.000000 10.761833 -1.142648 5.708393 0.128635 -0.315600 4.058468 -4.626331 -0.043866 10.742188 10.778487 -7.334257 -6.835895 0.000000 0.000000 0.000000 -4.974610 -36.218031 13.651138 -48.944814 -41.389498 11.088548 3.360493 -53.439284 0.240814 0.000000 0.000000 0.000000 2.019088 27.769513 10.714980 45.401453 37.897579 9.863850 -14.480996 23.329146 -1.771507 0.000000 0.000000 0.000000 
-0.016015 0.951752 0.095291 2.718435 8.578734 5.401655 2.020275 -0.628220 -7.464454 -0.897081 -0.223000 8.292243 6.063157 14.073469 7.130548 0.000000 0.000000 0.000000 -4.502333 0.732678 -12.120129 -0.244896 0.269178 7.879473 3.201731 1.827260 13.756498 0.000000 0.000000 0.000000 10.301528 -1.125522 5.765116 -0.539012 0.023311 3.852764 -4.601161 1.641110 11.098391 11.544718 -7.793972 -6.939874 0.000000 0.000000 0.000000 -4.875581 -34.587861 12.634847 -48.683071 -35.893016 8.329200 -6.367556 -60.768162 5.474335 0.000000 0.000000 0.000000 1.988700 26.802313 10.538685 43.910509 37.645314 9.425698 -12.263812 28.507449 -1.628250 0.000000 0.000000 0.000000 
-0.017136 0.951613 0.097112 2.727537 9.047031 5.441378 2.319737 -0.620030 -7.426182 -0.631601 -0.222111 7.236685 5.430737 13.465400 8.923209 0.000000 0.000000 0.000000 -4.504623 0.716788 -11.954274 -0.054221 0.226891 7.850525 2.966778 1.506367 13.620618 0.000000 0.000000 0.000000 10.075374 -1.092736 5.635597 -1.299380 0.410027 3.703466 -4.999792 3.094508 11.629445 12.164410 -7.991870 -7.639741 0.000000 0.000000 0.000000 -4.402559 -32.950083 11.626836 -47.513743 -30.429301 5.634136 -18.590857 -65.960752 13.421497 0.000000 0.000000 0.000000 0.535138 26.267972 10.086707 43.907006 37.095089 9.366544 -9.421205 34.632518 -1.052619 0.000000 0.000000 0.000000 
